# xmcd
#
# Track frame offsets: 
#        150
#        20669
#        33342
#        50359
#        65856
#        85269
#        105876
#        124520
#        140786
#        161612
#        182289
#
# Disc length: 2581 seconds
#
# Revision: 0
# Processed by: cddbd v1.5.2PL0 Copyright (c) Steve Scherf et al.
# Submitted via: ExactAudioCopy v0.99pb5
#
DISCID=8c0a130b
DTITLE=Pandolfi, Chris - Looking Glass
DYEAR=2009
DGENRE=Bluegrass
TTITLE0=Winnipeg
TTITLE1=Looking Glass
TTITLE2=Mr. Manys
TTITLE3=Machines
TTITLE4=Big Bend
TTITLE5=Rolling Blackout
TTITLE6=Wichita Stomp
TTITLE7=The Flashing Lantern
TTITLE8=Close Encounters
TTITLE9=Open C
TTITLE10=Melancholy
EXTD=
EXTT0=
EXTT1=
EXTT2=
EXTT3=
EXTT4=
EXTT5=
EXTT6=
EXTT7=
EXTT8=
EXTT9=
EXTT10=
PLAYORDER=
